Coordinates
version=1
nRows=14
nColumns=42
inDegrees=yes

Units are S.I. units (second, meters, Newtons, ...)
If the header above contains a line with 'inDegrees', this indicates whether rotational values are in degrees (yes) or radians (no).

endheader
time	pelvis_tilt	pelvis_list	pelvis_rotation	pelvis_tx	pelvis_ty	pelvis_tz	hip_flexion_r	hip_adduction_r	hip_rotation_r	knee_angle_r	knee_adduction_r	knee_angle_r_beta	ankle_angle_r	subtalar_angle_r	mtp_angle_r	hip_flexion_l	hip_adduction_l	hip_rotation_l	knee_angle_l	knee_adduction_l	knee_angle_l_beta	ankle_angle_l	subtalar_angle_l	mtp_angle_l	lumbar_extension	lumbar_bending	lumbar_rotation	arm_flex_r	arm_add_r	arm_rot_r	elbow_flex_r	pro_sup_r	wrist_flex_r	wrist_dev_r	arm_flex_l	arm_add_l	arm_rot_l	elbow_flex_l	pro_sup_l	wrist_flex_l	wrist_dev_l
      0.75000000	     19.21115089	     -0.25087041	      0.63278896	     -1.20366496	      0.88300351	     -0.00585580	    -27.95295886	      4.22380371	    -10.79017833	     18.86385703	     -0.30834302	      0.32923641	     27.47521859	      6.28836639	     -8.09864809	      8.28346235	     -2.97533637	      8.11901324	     10.00016460	      4.42492272	      0.17453580	      1.97678847	    -11.97916061	     -8.09864809	    -40.49936367	     -0.64651835	      1.63476745	     22.28828366	    -10.14885173	     -1.28734989	     40.49554336	     90.00000001	      0.00000000	      0.00000000	      5.15004411	     -3.53748962	    -34.21368711	     36.06352106	     90.00000001	      0.00000000	      0.00000000
      0.76000000	     19.16230812	     -0.26330823	      0.56836262	     -1.19399908	      0.88159562	     -0.00702763	    -28.41023008	      4.00323311	    -11.43407956	     19.31120049	     -0.37340897	      0.33704403	     27.72180342	      7.02142213	     -8.06374070	      8.37112856	     -2.86190807	      8.69165409	     10.48675195	      4.69379076	      0.18302835	      1.24286256	    -13.65490526	     -8.06374070	    -40.28890387	     -0.64041388	      1.62736027	     22.31155648	    -10.10941301	     -1.18610379	     40.52006195	     90.00000001	      0.00000000	      0.00000000	      4.98909450	     -3.40889303	    -34.60980074	     35.84000618	     90.00000001	      0.00000000	      0.00000000
      0.77000000	     19.11052895	     -0.30089643	      0.47467697	     -1.18416188	      0.88020657	     -0.00819935	    -28.86811935	      3.77856557	    -11.75233998	     19.78863996	     -0.33257771	      0.34537692	     27.61977976	      7.10883328	     -8.05664725	      8.58341456	     -2.78389684	      8.79928903	     11.44425293	      5.01115874	      0.19973989	      1.27681692	    -14.15262538	     -8.05664725	    -40.05368969	     -0.63063501	      1.71021101	     22.24712985	    -10.08092154	     -1.22253340	     40.54852453	     90.00000001	      0.00000000	      0.00000000	      4.77831377	     -3.30434350	    -34.65693987	     35.67273000	     90.00000001	      0.00000000	      0.00000000
      0.78000000	     18.89127551	     -0.35788282	      0.42115384	     -1.17417870	      0.87855982	     -0.00943427	    -29.07186063	      3.60987458	    -12.28701947	     20.40332890	     -0.46307182	      0.35610527	     27.61553138	      7.46332695	     -8.04602066	      9.09124576	     -2.70359665	      8.84852723	     12.78116339	      5.31901953	      0.22307338	      1.15829235	    -14.76098591	     -8.04602066	    -39.63490582	     -0.59655345	      1.78039253	     22.10014694	    -10.06151979	     -1.31657836	     40.55297501	     90.00000001	      0.00000000	      0.00000000	      4.56410127	     -3.20646340	    -34.78953543	     35.46255273	     90.00000001	      0.00000000	      0.00000000
      0.79000000	     18.72172669	     -0.39062175	      0.28264036	     -1.16417423	      0.87719021	     -0.01059262	    -29.31471983	      3.38312592	    -12.45211122	     21.03894731	     -0.54968067	      0.36719890	     27.50384147	      7.66333326	     -8.04120859	      9.28626108	     -2.64883611	      9.24561154	     13.69973263	      5.74329908	      0.23910544	      1.03018277	    -14.82123307	     -8.04120859	    -39.28073279	     -0.63818074	      1.94560111	     21.92978427	    -10.06417463	     -1.38577936	     40.51477151	     90.00000001	      0.00000000	      0.00000000	      4.37893066	     -3.06641715	    -34.84461364	     35.33959873	     90.00000001	      0.00000000	      0.00000000
      0.80000000	     18.47095458	     -0.34017328	      0.31707762	     -1.15373450	      0.87550921	     -0.01221870	    -29.34086456	      3.00709467	    -13.95255389	     21.99037130	     -0.87348564	      0.38380438	     27.83944316	      9.68157941	     -8.00095623	      9.92573095	     -2.38606892	      9.15873903	     15.49980023	      6.03679710	      0.27052255	      0.85568671	    -15.36025246	     -8.00095623	    -38.76604753	     -0.64149151	      1.88695925	     21.64262388	     -9.95092531	     -1.78344939	     40.49351315	     90.00000001	      0.00000000	      0.00000000	      4.20710692	     -2.93056467	    -35.36628793	     35.01895845	     90.00000001	      0.00000000	      0.00000000
      0.81000000	     18.25170895	     -0.36281007	      0.25216132	     -1.14347073	      0.87418818	     -0.01364063	    -29.44648873	      2.69775615	    -14.20386448	     22.85740636	     -0.85613489	      0.39893700	     27.52540816	      9.76496001	     -7.99644706	     10.23092693	     -2.31513713	      9.61174816	     16.68687197	      6.56347815	      0.29124086	      0.61171159	    -15.51836695	     -7.99644706	    -38.33952194	     -0.64812300	      1.99863584	     21.34496380	     -9.94618748	     -1.92197404	     40.44018619	     90.00000001	      0.00000000	      0.00000000	      4.01172874	     -2.81592897	    -35.40732456	     34.84359459	     90.00000001	      0.00000000	      0.00000000
      0.82000000	     18.00759003	     -0.33236952	      0.22943654	     -1.13301384	      0.87290345	     -0.01514298	    -29.51438009	      2.37622653	    -14.56530769	     23.73385436	     -0.95338289	      0.41423390	     27.12534571	      9.98054020	     -7.99156667	     10.66541763	     -2.14375209	      9.96731916	     18.16984239	      7.02437187	      0.31712357	      0.37784482	    -15.71711934	     -7.99156667	    -37.86151674	     -0.69919019	      2.06681939	     20.95428827	     -9.90740749	     -2.18057102	     40.39112999	     90.00000001	      0.00000000	      0.00000000	      3.82721392	     -2.73176531	    -35.49086156	     34.64601151	     90.00000001	      0.00000000	      0.00000000
      0.83000000	     17.73100803	     -0.25778264	      0.26813424	     -1.12235081	      0.87164890	     -0.01682039	    -29.54172656	      2.04288707	    -15.08330438	     24.61668691	     -1.15549256	      0.42964224	     26.63106123	     10.44875935	     -7.98360050	     11.24457112	     -1.85743444	     10.07375223	     19.93684122	      7.33381736	      0.34796352	      0.23462672	    -15.86383420	     -7.98360050	    -37.32512923	     -0.75523729	      2.06933409	     20.48653875	     -9.81360159	     -2.65945317	     40.35893075	     90.00000001	      0.00000000	      0.00000000	      3.65272365	     -2.64247560	    -35.63533769	     34.42343890	     90.00000001	      0.00000000	      0.00000000
      0.84000000	     17.53270900	     -0.18322933	      0.23297242	     -1.11168758	      0.87075591	     -0.01839216	    -29.58146261	      1.61168475	    -15.31292102	     25.64999721	     -1.17763658	      0.44767690	     26.08029444	     10.74631687	     -7.97860923	     11.52236864	     -1.67265400	     10.50615770	     21.27132945	      7.86731967	      0.37125474	      0.17910758	    -15.83912477	     -7.97860923	    -36.88588785	     -0.85508770	      2.15084210	     20.00374614	     -9.77142385	     -3.01278650	     40.25403594	     90.00000001	      0.00000000	      0.00000000	      3.48858931	     -2.55827850	    -35.73097108	     34.25193505	     90.00000001	      0.00000000	      0.00000000
      0.85000000	     17.36145693	     -0.03398233	      0.22803638	     -1.10099542	      0.87005894	     -0.02004955	    -29.61721401	      1.13527059	    -15.54506234	     26.72419551	     -1.24301102	      0.46642520	     25.32686866	     10.99148151	     -7.97417896	     11.80995051	     -1.36402844	     10.92265060	     22.71922854	      8.34885774	      0.39652534	      0.23740326	    -15.89381785	     -7.97417896	    -36.48845275	     -1.03203626	      2.19984109	     19.46376533	     -9.67595536	     -3.41907692	     40.15652339	     90.00000001	      0.00000000	      0.00000000	      3.38238642	     -2.46078995	    -35.81234964	     34.08499477	     90.00000001	      0.00000000	      0.00000000
      0.86000000	     17.19347507	      0.16363345	      0.27108738	     -1.09010616	      0.86949421	     -0.02185816	    -29.62724855	      0.61942045	    -15.84232837	     27.85087401	     -1.35001339	      0.48608945	     24.32801176	     11.23204010	     -7.96856262	     12.11165263	     -0.94686735	     11.16587921	     24.27005951	      8.67839743	      0.42359245	      0.47322458	    -15.96284512	     -7.96856262	    -36.07004832	     -1.22253152	      2.17418543	     18.84990314	     -9.59076018	     -4.01284812	     40.07402184	     90.00000001	      0.00000000	      0.00000000	      3.23824254	     -2.42439325	    -35.92156166	     33.90250919	     90.00000001	      0.00000000	      0.00000000
      0.87000000	     17.08562585	      0.38451253	      0.30050753	     -1.07924258	      0.86922945	     -0.02363683	    -29.63875310	      0.07307416	    -16.03266469	     29.06007249	     -1.42775203	      0.50719395	     23.18640366	     11.38457832	     -7.96295340	     12.26084497	     -0.52083816	     11.43941665	     25.67712387	      9.02746601	      0.44815035	      0.85442649	    -15.97256183	     -7.96295340	    -35.73692256	     -1.45367246	      2.17562566	     18.21486140	     -9.47672595	     -4.62067200	     39.95925091	     90.00000001	      0.00000000	      0.00000000	      3.13626134	     -2.38057624	    -36.00804539	     33.74962425	     90.00000001	      0.00000000	      0.00000000
      0.88000000	     17.06334080	      0.60420498	      0.31441094	     -1.06851270	      0.86930995	     -0.02540032	    -29.65971097	     -0.47455482	    -16.04299942	     30.35696867	     -1.47807757	      0.52982905	     21.99229215	     11.43851315	     -7.95936356	     12.21452035	     -0.13553373	     11.84143003	     26.88343083	      9.47120504	      0.46920438	      1.28545413	    -16.01174328	     -7.95936356	    -35.52659191	     -1.69896011	      2.20280521	     17.58513145	     -9.39300692	     -5.08056592	     39.79766072	     90.00000001	      0.00000000	      0.00000000	      3.08734530	     -2.32501547	    -36.05163519	     33.63789115	     90.00000001	      0.00000000	      0.00000000
